<mxfile host="app.diagrams.net" agent="Mozilla/5.0 (X11; Linux x86_64) AppleWebKit/537.36 (KHTML, like Gecko) Chrome/134.0.0.0 Safari/537.36" version="26.1.3">
  <diagram name="Page-1" id="c7488fd3-1785-93aa-aadb-54a6760d102a">
    <mxGraphModel dx="3205" dy="1222" grid="1" gridSize="10" guides="1" tooltips="1" connect="1" arrows="1" fold="1" page="1" pageScale="1" pageWidth="1100" pageHeight="850" background="none" math="0" shadow="0">
      <root>
        <mxCell id="0" />
        <mxCell id="1" parent="0" />
        <mxCell id="pzpwTBq0BCV45j5jWxMN-1" value="Users" style="rounded=0;whiteSpace=wrap;html=1;" parent="1" vertex="1">
          <mxGeometry x="180" y="210" width="120" height="60" as="geometry" />
        </mxCell>
        <mxCell id="pzpwTBq0BCV45j5jWxMN-2" value="user address" style="rounded=0;whiteSpace=wrap;html=1;" parent="1" vertex="1">
          <mxGeometry x="510" y="210" width="120" height="60" as="geometry" />
        </mxCell>
        <mxCell id="pzpwTBq0BCV45j5jWxMN-27" style="edgeStyle=orthogonalEdgeStyle;rounded=0;orthogonalLoop=1;jettySize=auto;html=1;exitX=0.5;exitY=0;exitDx=0;exitDy=0;entryX=0.5;entryY=1;entryDx=0;entryDy=0;shape=link;" parent="1" source="pzpwTBq0BCV45j5jWxMN-3" target="pzpwTBq0BCV45j5jWxMN-10" edge="1">
          <mxGeometry relative="1" as="geometry" />
        </mxCell>
        <mxCell id="pzpwTBq0BCV45j5jWxMN-3" value="orders" style="rounded=0;whiteSpace=wrap;html=1;" parent="1" vertex="1">
          <mxGeometry x="510" y="520" width="120" height="60" as="geometry" />
        </mxCell>
        <mxCell id="pzpwTBq0BCV45j5jWxMN-4" value="restaurants" style="rounded=0;whiteSpace=wrap;html=1;" parent="1" vertex="1">
          <mxGeometry x="-60" y="520" width="120" height="60" as="geometry" />
        </mxCell>
        <mxCell id="pzpwTBq0BCV45j5jWxMN-5" value="order items" style="rounded=0;whiteSpace=wrap;html=1;" parent="1" vertex="1">
          <mxGeometry x="1030" y="520" width="120" height="60" as="geometry" />
        </mxCell>
        <mxCell id="pzpwTBq0BCV45j5jWxMN-6" value="payments" style="rounded=0;whiteSpace=wrap;html=1;" parent="1" vertex="1">
          <mxGeometry x="-60" y="910" width="120" height="60" as="geometry" />
        </mxCell>
        <mxCell id="pzpwTBq0BCV45j5jWxMN-7" value="delivery table" style="rounded=0;whiteSpace=wrap;html=1;" parent="1" vertex="1">
          <mxGeometry x="520" y="910" width="120" height="60" as="geometry" />
        </mxCell>
        <mxCell id="pzpwTBq0BCV45j5jWxMN-8" value="menu items" style="rounded=0;whiteSpace=wrap;html=1;" parent="1" vertex="1">
          <mxGeometry x="1030" y="930" width="120" height="60" as="geometry" />
        </mxCell>
        <mxCell id="pzpwTBq0BCV45j5jWxMN-17" style="edgeStyle=orthogonalEdgeStyle;rounded=0;orthogonalLoop=1;jettySize=auto;html=1;entryX=1;entryY=0.5;entryDx=0;entryDy=0;" parent="1" source="pzpwTBq0BCV45j5jWxMN-9" target="pzpwTBq0BCV45j5jWxMN-1" edge="1">
          <mxGeometry relative="1" as="geometry" />
        </mxCell>
        <mxCell id="pzpwTBq0BCV45j5jWxMN-18" value="" style="edgeStyle=orthogonalEdgeStyle;rounded=0;orthogonalLoop=1;jettySize=auto;html=1;shape=link;" parent="1" source="pzpwTBq0BCV45j5jWxMN-9" target="pzpwTBq0BCV45j5jWxMN-2" edge="1">
          <mxGeometry relative="1" as="geometry" />
        </mxCell>
        <mxCell id="pzpwTBq0BCV45j5jWxMN-9" value="stay" style="rhombus;whiteSpace=wrap;html=1;" parent="1" vertex="1">
          <mxGeometry x="370" y="200" width="80" height="80" as="geometry" />
        </mxCell>
        <mxCell id="pzpwTBq0BCV45j5jWxMN-26" style="edgeStyle=orthogonalEdgeStyle;rounded=0;orthogonalLoop=1;jettySize=auto;html=1;exitX=0.5;exitY=0;exitDx=0;exitDy=0;entryX=0.5;entryY=1;entryDx=0;entryDy=0;" parent="1" source="pzpwTBq0BCV45j5jWxMN-10" target="pzpwTBq0BCV45j5jWxMN-2" edge="1">
          <mxGeometry relative="1" as="geometry" />
        </mxCell>
        <mxCell id="pzpwTBq0BCV45j5jWxMN-10" value="used in" style="rhombus;whiteSpace=wrap;html=1;" parent="1" vertex="1">
          <mxGeometry x="530" y="360" width="80" height="80" as="geometry" />
        </mxCell>
        <mxCell id="pzpwTBq0BCV45j5jWxMN-28" style="edgeStyle=orthogonalEdgeStyle;rounded=0;orthogonalLoop=1;jettySize=auto;html=1;exitX=1;exitY=0.5;exitDx=0;exitDy=0;entryX=0;entryY=0.5;entryDx=0;entryDy=0;shape=flexArrow;endWidth=14;endSize=8.33;" parent="1" source="pzpwTBq0BCV45j5jWxMN-11" target="pzpwTBq0BCV45j5jWxMN-3" edge="1">
          <mxGeometry relative="1" as="geometry">
            <Array as="points">
              <mxPoint x="410" y="550" />
              <mxPoint x="410" y="550" />
            </Array>
          </mxGeometry>
        </mxCell>
        <mxCell id="pzpwTBq0BCV45j5jWxMN-30" style="edgeStyle=orthogonalEdgeStyle;rounded=0;orthogonalLoop=1;jettySize=auto;html=1;exitX=0;exitY=0.5;exitDx=0;exitDy=0;" parent="1" source="pzpwTBq0BCV45j5jWxMN-11" target="pzpwTBq0BCV45j5jWxMN-4" edge="1">
          <mxGeometry relative="1" as="geometry" />
        </mxCell>
        <mxCell id="pzpwTBq0BCV45j5jWxMN-11" value="refers" style="rhombus;whiteSpace=wrap;html=1;" parent="1" vertex="1">
          <mxGeometry x="230" y="510" width="80" height="80" as="geometry" />
        </mxCell>
        <mxCell id="pzpwTBq0BCV45j5jWxMN-44" style="edgeStyle=orthogonalEdgeStyle;rounded=0;orthogonalLoop=1;jettySize=auto;html=1;entryX=0.5;entryY=0;entryDx=0;entryDy=0;shape=flexArrow;" parent="1" source="pzpwTBq0BCV45j5jWxMN-12" target="pzpwTBq0BCV45j5jWxMN-6" edge="1">
          <mxGeometry relative="1" as="geometry">
            <Array as="points">
              <mxPoint x="280" y="630" />
              <mxPoint y="630" />
            </Array>
          </mxGeometry>
        </mxCell>
        <mxCell id="pzpwTBq0BCV45j5jWxMN-12" value="payment method" style="rhombus;whiteSpace=wrap;html=1;" parent="1" vertex="1">
          <mxGeometry x="250" y="623" width="80" height="80" as="geometry" />
        </mxCell>
        <mxCell id="pzpwTBq0BCV45j5jWxMN-43" style="edgeStyle=orthogonalEdgeStyle;rounded=0;orthogonalLoop=1;jettySize=auto;html=1;shape=flexArrow;" parent="1" source="pzpwTBq0BCV45j5jWxMN-13" target="pzpwTBq0BCV45j5jWxMN-7" edge="1">
          <mxGeometry relative="1" as="geometry" />
        </mxCell>
        <mxCell id="pzpwTBq0BCV45j5jWxMN-13" value="delivery&amp;nbsp;&lt;div&gt;status&lt;/div&gt;" style="rhombus;whiteSpace=wrap;html=1;" parent="1" vertex="1">
          <mxGeometry x="540" y="730" width="80" height="80" as="geometry" />
        </mxCell>
        <mxCell id="pzpwTBq0BCV45j5jWxMN-32" style="edgeStyle=orthogonalEdgeStyle;rounded=0;orthogonalLoop=1;jettySize=auto;html=1;exitX=0;exitY=0.5;exitDx=0;exitDy=0;entryX=1;entryY=0.5;entryDx=0;entryDy=0;" parent="1" source="pzpwTBq0BCV45j5jWxMN-14" target="pzpwTBq0BCV45j5jWxMN-3" edge="1">
          <mxGeometry relative="1" as="geometry" />
        </mxCell>
        <mxCell id="pzpwTBq0BCV45j5jWxMN-33" style="edgeStyle=orthogonalEdgeStyle;rounded=0;orthogonalLoop=1;jettySize=auto;html=1;exitX=1;exitY=0.5;exitDx=0;exitDy=0;entryX=0;entryY=0.5;entryDx=0;entryDy=0;shape=link;" parent="1" source="pzpwTBq0BCV45j5jWxMN-14" target="pzpwTBq0BCV45j5jWxMN-5" edge="1">
          <mxGeometry relative="1" as="geometry" />
        </mxCell>
        <mxCell id="pzpwTBq0BCV45j5jWxMN-14" value="has" style="rhombus;whiteSpace=wrap;html=1;" parent="1" vertex="1">
          <mxGeometry x="810" y="510" width="80" height="80" as="geometry" />
        </mxCell>
        <mxCell id="pzpwTBq0BCV45j5jWxMN-36" style="edgeStyle=orthogonalEdgeStyle;rounded=0;orthogonalLoop=1;jettySize=auto;html=1;exitX=0.5;exitY=0;exitDx=0;exitDy=0;entryX=0.5;entryY=1;entryDx=0;entryDy=0;shape=flexArrow;" parent="1" source="pzpwTBq0BCV45j5jWxMN-15" target="pzpwTBq0BCV45j5jWxMN-5" edge="1">
          <mxGeometry relative="1" as="geometry" />
        </mxCell>
        <mxCell id="pzpwTBq0BCV45j5jWxMN-38" style="edgeStyle=orthogonalEdgeStyle;rounded=0;orthogonalLoop=1;jettySize=auto;html=1;" parent="1" source="pzpwTBq0BCV45j5jWxMN-15" target="pzpwTBq0BCV45j5jWxMN-8" edge="1">
          <mxGeometry relative="1" as="geometry" />
        </mxCell>
        <mxCell id="pzpwTBq0BCV45j5jWxMN-15" value="refers" style="rhombus;whiteSpace=wrap;html=1;" parent="1" vertex="1">
          <mxGeometry x="1050" y="720" width="80" height="80" as="geometry" />
        </mxCell>
        <mxCell id="pzpwTBq0BCV45j5jWxMN-24" value="m" style="text;html=1;align=center;verticalAlign=middle;resizable=0;points=[];autosize=1;strokeColor=none;fillColor=none;" parent="1" vertex="1">
          <mxGeometry x="460" y="210" width="30" height="30" as="geometry" />
        </mxCell>
        <mxCell id="pzpwTBq0BCV45j5jWxMN-25" value="1" style="text;html=1;align=center;verticalAlign=middle;resizable=0;points=[];autosize=1;strokeColor=none;fillColor=none;" parent="1" vertex="1">
          <mxGeometry x="320" y="210" width="30" height="30" as="geometry" />
        </mxCell>
        <mxCell id="pzpwTBq0BCV45j5jWxMN-29" value="1" style="text;html=1;align=center;verticalAlign=middle;resizable=0;points=[];autosize=1;strokeColor=none;fillColor=none;" parent="1" vertex="1">
          <mxGeometry x="385" y="508" width="30" height="30" as="geometry" />
        </mxCell>
        <mxCell id="pzpwTBq0BCV45j5jWxMN-31" value="1" style="text;html=1;align=center;verticalAlign=middle;resizable=0;points=[];autosize=1;strokeColor=none;fillColor=none;" parent="1" vertex="1">
          <mxGeometry x="135" y="508" width="30" height="30" as="geometry" />
        </mxCell>
        <mxCell id="pzpwTBq0BCV45j5jWxMN-34" value="1" style="text;html=1;align=center;verticalAlign=middle;resizable=0;points=[];autosize=1;strokeColor=none;fillColor=none;" parent="1" vertex="1">
          <mxGeometry x="705" y="508" width="30" height="30" as="geometry" />
        </mxCell>
        <mxCell id="pzpwTBq0BCV45j5jWxMN-35" value="m" style="text;html=1;align=center;verticalAlign=middle;resizable=0;points=[];autosize=1;strokeColor=none;fillColor=none;" parent="1" vertex="1">
          <mxGeometry x="935" y="518" width="30" height="30" as="geometry" />
        </mxCell>
        <mxCell id="pzpwTBq0BCV45j5jWxMN-37" value="1" style="text;html=1;align=center;verticalAlign=middle;resizable=0;points=[];autosize=1;strokeColor=none;fillColor=none;" parent="1" vertex="1">
          <mxGeometry x="1095" y="618" width="30" height="30" as="geometry" />
        </mxCell>
        <mxCell id="pzpwTBq0BCV45j5jWxMN-39" value="1" style="text;html=1;align=center;verticalAlign=middle;resizable=0;points=[];autosize=1;strokeColor=none;fillColor=none;" parent="1" vertex="1">
          <mxGeometry x="1095" y="848" width="30" height="30" as="geometry" />
        </mxCell>
        <mxCell id="pzpwTBq0BCV45j5jWxMN-41" style="edgeStyle=orthogonalEdgeStyle;rounded=0;orthogonalLoop=1;jettySize=auto;html=1;entryX=0.583;entryY=1.017;entryDx=0;entryDy=0;entryPerimeter=0;" parent="1" source="pzpwTBq0BCV45j5jWxMN-13" target="pzpwTBq0BCV45j5jWxMN-3" edge="1">
          <mxGeometry relative="1" as="geometry" />
        </mxCell>
        <mxCell id="pzpwTBq0BCV45j5jWxMN-42" style="edgeStyle=orthogonalEdgeStyle;rounded=0;orthogonalLoop=1;jettySize=auto;html=1;exitX=0.5;exitY=0;exitDx=0;exitDy=0;" parent="1" source="pzpwTBq0BCV45j5jWxMN-12" edge="1">
          <mxGeometry relative="1" as="geometry">
            <mxPoint x="518" y="583" as="targetPoint" />
          </mxGeometry>
        </mxCell>
        <mxCell id="pzpwTBq0BCV45j5jWxMN-45" value="1" style="text;html=1;align=center;verticalAlign=middle;resizable=0;points=[];autosize=1;strokeColor=none;fillColor=none;" parent="1" vertex="1">
          <mxGeometry x="575" y="648" width="30" height="30" as="geometry" />
        </mxCell>
        <mxCell id="pzpwTBq0BCV45j5jWxMN-46" value="1" style="text;html=1;align=center;verticalAlign=middle;resizable=0;points=[];autosize=1;strokeColor=none;fillColor=none;" parent="1" vertex="1">
          <mxGeometry x="385" y="628" width="30" height="30" as="geometry" />
        </mxCell>
        <mxCell id="pzpwTBq0BCV45j5jWxMN-47" value="1" style="text;html=1;align=center;verticalAlign=middle;resizable=0;points=[];autosize=1;strokeColor=none;fillColor=none;" parent="1" vertex="1">
          <mxGeometry x="585" y="828" width="30" height="30" as="geometry" />
        </mxCell>
        <mxCell id="pzpwTBq0BCV45j5jWxMN-48" value="1" style="text;html=1;align=center;verticalAlign=middle;resizable=0;points=[];autosize=1;strokeColor=none;fillColor=none;" parent="1" vertex="1">
          <mxGeometry x="15" y="818" width="30" height="30" as="geometry" />
        </mxCell>
        <mxCell id="pzpwTBq0BCV45j5jWxMN-49" value="1" style="text;html=1;align=center;verticalAlign=middle;resizable=0;points=[];autosize=1;strokeColor=none;fillColor=none;" parent="1" vertex="1">
          <mxGeometry x="575" y="298" width="30" height="30" as="geometry" />
        </mxCell>
        <mxCell id="pzpwTBq0BCV45j5jWxMN-50" value="m" style="text;html=1;align=center;verticalAlign=middle;resizable=0;points=[];autosize=1;strokeColor=none;fillColor=none;" parent="1" vertex="1">
          <mxGeometry x="575" y="458" width="30" height="30" as="geometry" />
        </mxCell>
        <mxCell id="E0C3lFz2rYSMoJs8v3DQ-5" style="edgeStyle=none;rounded=0;orthogonalLoop=1;jettySize=auto;html=1;exitX=0.5;exitY=1;exitDx=0;exitDy=0;entryX=0;entryY=0;entryDx=0;entryDy=0;endArrow=none;startFill=0;" parent="1" source="pzpwTBq0BCV45j5jWxMN-51" target="pzpwTBq0BCV45j5jWxMN-1" edge="1">
          <mxGeometry relative="1" as="geometry" />
        </mxCell>
        <mxCell id="pzpwTBq0BCV45j5jWxMN-51" value="&lt;u&gt;user ID&lt;/u&gt;" style="ellipse;whiteSpace=wrap;html=1;" parent="1" vertex="1">
          <mxGeometry x="15" y="90" width="100" height="50" as="geometry" />
        </mxCell>
        <mxCell id="E0C3lFz2rYSMoJs8v3DQ-4" style="edgeStyle=orthogonalEdgeStyle;rounded=0;orthogonalLoop=1;jettySize=auto;html=1;exitX=0.5;exitY=1;exitDx=0;exitDy=0;endArrow=none;startFill=0;" parent="1" source="pzpwTBq0BCV45j5jWxMN-54" target="pzpwTBq0BCV45j5jWxMN-1" edge="1">
          <mxGeometry relative="1" as="geometry" />
        </mxCell>
        <mxCell id="pzpwTBq0BCV45j5jWxMN-54" value="name" style="ellipse;whiteSpace=wrap;html=1;" parent="1" vertex="1">
          <mxGeometry x="165" y="90" width="100" height="60" as="geometry" />
        </mxCell>
        <mxCell id="E0C3lFz2rYSMoJs8v3DQ-6" style="edgeStyle=none;rounded=0;orthogonalLoop=1;jettySize=auto;html=1;exitX=1;exitY=0.5;exitDx=0;exitDy=0;endArrow=none;startFill=0;" parent="1" source="pzpwTBq0BCV45j5jWxMN-55" target="pzpwTBq0BCV45j5jWxMN-1" edge="1">
          <mxGeometry relative="1" as="geometry" />
        </mxCell>
        <mxCell id="pzpwTBq0BCV45j5jWxMN-55" value="phone" style="ellipse;whiteSpace=wrap;html=1;" parent="1" vertex="1">
          <mxGeometry x="10" y="195" width="100" height="60" as="geometry" />
        </mxCell>
        <mxCell id="E0C3lFz2rYSMoJs8v3DQ-7" value="" style="edgeStyle=none;rounded=0;orthogonalLoop=1;jettySize=auto;html=1;entryX=0;entryY=0;entryDx=0;entryDy=0;endArrow=none;startFill=0;" parent="1" source="pzpwTBq0BCV45j5jWxMN-56" target="pzpwTBq0BCV45j5jWxMN-2" edge="1">
          <mxGeometry relative="1" as="geometry" />
        </mxCell>
        <mxCell id="pzpwTBq0BCV45j5jWxMN-56" value="&lt;u&gt;address ID&lt;/u&gt;" style="ellipse;whiteSpace=wrap;html=1;" parent="1" vertex="1">
          <mxGeometry x="390" y="80" width="100" height="60" as="geometry" />
        </mxCell>
        <mxCell id="pzpwTBq0BCV45j5jWxMN-57" value="user ID" style="ellipse;whiteSpace=wrap;html=1;" parent="1" vertex="1">
          <mxGeometry x="510" y="100" width="100" height="60" as="geometry" />
        </mxCell>
        <mxCell id="E0C3lFz2rYSMoJs8v3DQ-9" style="edgeStyle=none;rounded=0;orthogonalLoop=1;jettySize=auto;html=1;exitX=0.5;exitY=1;exitDx=0;exitDy=0;entryX=0.75;entryY=0;entryDx=0;entryDy=0;endArrow=none;startFill=0;" parent="1" source="pzpwTBq0BCV45j5jWxMN-58" target="pzpwTBq0BCV45j5jWxMN-2" edge="1">
          <mxGeometry relative="1" as="geometry" />
        </mxCell>
        <mxCell id="pzpwTBq0BCV45j5jWxMN-58" value="address line" style="ellipse;whiteSpace=wrap;html=1;" parent="1" vertex="1">
          <mxGeometry x="605" y="20" width="100" height="60" as="geometry" />
        </mxCell>
        <mxCell id="pzpwTBq0BCV45j5jWxMN-59" value="city" style="ellipse;whiteSpace=wrap;html=1;" parent="1" vertex="1">
          <mxGeometry x="770" y="50" width="100" height="60" as="geometry" />
        </mxCell>
        <mxCell id="E0C3lFz2rYSMoJs8v3DQ-12" style="edgeStyle=none;rounded=0;orthogonalLoop=1;jettySize=auto;html=1;exitX=0;exitY=0.5;exitDx=0;exitDy=0;entryX=1;entryY=0.25;entryDx=0;entryDy=0;endArrow=none;startFill=0;" parent="1" source="pzpwTBq0BCV45j5jWxMN-60" target="pzpwTBq0BCV45j5jWxMN-2" edge="1">
          <mxGeometry relative="1" as="geometry" />
        </mxCell>
        <mxCell id="pzpwTBq0BCV45j5jWxMN-60" value="state" style="ellipse;whiteSpace=wrap;html=1;" parent="1" vertex="1">
          <mxGeometry x="735" y="140" width="100" height="60" as="geometry" />
        </mxCell>
        <mxCell id="E0C3lFz2rYSMoJs8v3DQ-13" style="edgeStyle=none;rounded=0;orthogonalLoop=1;jettySize=auto;html=1;endArrow=none;startFill=0;" parent="1" source="pzpwTBq0BCV45j5jWxMN-61" target="pzpwTBq0BCV45j5jWxMN-2" edge="1">
          <mxGeometry relative="1" as="geometry" />
        </mxCell>
        <mxCell id="pzpwTBq0BCV45j5jWxMN-61" value="pincode" style="ellipse;whiteSpace=wrap;html=1;" parent="1" vertex="1">
          <mxGeometry x="705" y="250" width="100" height="60" as="geometry" />
        </mxCell>
        <mxCell id="pzpwTBq0BCV45j5jWxMN-63" value="phone" style="ellipse;whiteSpace=wrap;html=1;" parent="1" vertex="1">
          <mxGeometry x="-60" y="360" width="100" height="60" as="geometry" />
        </mxCell>
        <mxCell id="pzpwTBq0BCV45j5jWxMN-64" value="name" style="ellipse;whiteSpace=wrap;html=1;" parent="1" vertex="1">
          <mxGeometry x="-250" y="398" width="100" height="60" as="geometry" />
        </mxCell>
        <mxCell id="pzpwTBq0BCV45j5jWxMN-65" value="address" style="ellipse;whiteSpace=wrap;html=1;" parent="1" vertex="1">
          <mxGeometry x="-270" y="558" width="100" height="60" as="geometry" />
        </mxCell>
        <mxCell id="pzpwTBq0BCV45j5jWxMN-66" value="&lt;u&gt;restaurant ID&lt;/u&gt;" style="ellipse;whiteSpace=wrap;html=1;" parent="1" vertex="1">
          <mxGeometry x="-170" y="628" width="100" height="60" as="geometry" />
        </mxCell>
        <mxCell id="pzpwTBq0BCV45j5jWxMN-67" value="&lt;u&gt;Item ID&lt;/u&gt;" style="ellipse;whiteSpace=wrap;html=1;" parent="1" vertex="1">
          <mxGeometry x="1020" y="1070" width="100" height="60" as="geometry" />
        </mxCell>
        <mxCell id="pzpwTBq0BCV45j5jWxMN-68" value="Restaurant ID" style="ellipse;whiteSpace=wrap;html=1;" parent="1" vertex="1">
          <mxGeometry x="1170" y="1100" width="100" height="60" as="geometry" />
        </mxCell>
        <mxCell id="pzpwTBq0BCV45j5jWxMN-69" value="Item Name" style="ellipse;whiteSpace=wrap;html=1;" parent="1" vertex="1">
          <mxGeometry x="1240" y="990" width="100" height="60" as="geometry" />
        </mxCell>
        <mxCell id="pzpwTBq0BCV45j5jWxMN-70" value="Description" style="ellipse;whiteSpace=wrap;html=1;" parent="1" vertex="1">
          <mxGeometry x="1280" y="870" width="100" height="60" as="geometry" />
        </mxCell>
        <mxCell id="pzpwTBq0BCV45j5jWxMN-71" value="Price" style="ellipse;whiteSpace=wrap;html=1;" parent="1" vertex="1">
          <mxGeometry x="1170" y="813" width="100" height="60" as="geometry" />
        </mxCell>
        <mxCell id="E0C3lFz2rYSMoJs8v3DQ-8" style="edgeStyle=none;rounded=0;orthogonalLoop=1;jettySize=auto;html=1;entryX=0.406;entryY=-0.061;entryDx=0;entryDy=0;entryPerimeter=0;endArrow=none;startFill=0;" parent="1" source="pzpwTBq0BCV45j5jWxMN-57" target="pzpwTBq0BCV45j5jWxMN-2" edge="1">
          <mxGeometry relative="1" as="geometry" />
        </mxCell>
        <mxCell id="E0C3lFz2rYSMoJs8v3DQ-10" style="edgeStyle=none;rounded=0;orthogonalLoop=1;jettySize=auto;html=1;entryX=0.928;entryY=0.094;entryDx=0;entryDy=0;entryPerimeter=0;endArrow=none;startFill=0;" parent="1" source="pzpwTBq0BCV45j5jWxMN-59" target="pzpwTBq0BCV45j5jWxMN-2" edge="1">
          <mxGeometry relative="1" as="geometry" />
        </mxCell>
        <mxCell id="E0C3lFz2rYSMoJs8v3DQ-14" value="" style="endArrow=none;html=1;rounded=0;entryX=0.5;entryY=1;entryDx=0;entryDy=0;exitX=0.5;exitY=0;exitDx=0;exitDy=0;" parent="1" source="pzpwTBq0BCV45j5jWxMN-4" target="pzpwTBq0BCV45j5jWxMN-63" edge="1">
          <mxGeometry width="50" height="50" relative="1" as="geometry">
            <mxPoint x="480" y="530" as="sourcePoint" />
            <mxPoint x="530" y="480" as="targetPoint" />
            <Array as="points" />
          </mxGeometry>
        </mxCell>
        <mxCell id="E0C3lFz2rYSMoJs8v3DQ-16" value="" style="endArrow=none;html=1;rounded=0;" parent="1" target="pzpwTBq0BCV45j5jWxMN-4" edge="1">
          <mxGeometry width="50" height="50" relative="1" as="geometry">
            <mxPoint x="-190" y="460" as="sourcePoint" />
            <mxPoint x="-100" y="430" as="targetPoint" />
            <Array as="points" />
          </mxGeometry>
        </mxCell>
        <mxCell id="E0C3lFz2rYSMoJs8v3DQ-18" value="" style="endArrow=none;html=1;rounded=0;entryX=0;entryY=0.5;entryDx=0;entryDy=0;" parent="1" source="pzpwTBq0BCV45j5jWxMN-65" target="pzpwTBq0BCV45j5jWxMN-4" edge="1">
          <mxGeometry width="50" height="50" relative="1" as="geometry">
            <mxPoint x="-150" y="550" as="sourcePoint" />
            <mxPoint x="-100" y="500" as="targetPoint" />
            <Array as="points" />
          </mxGeometry>
        </mxCell>
        <mxCell id="E0C3lFz2rYSMoJs8v3DQ-19" value="" style="endArrow=none;html=1;rounded=0;exitX=0.5;exitY=0;exitDx=0;exitDy=0;" parent="1" source="pzpwTBq0BCV45j5jWxMN-67" target="pzpwTBq0BCV45j5jWxMN-8" edge="1">
          <mxGeometry width="50" height="50" relative="1" as="geometry">
            <mxPoint x="520" y="990" as="sourcePoint" />
            <mxPoint x="570" y="940" as="targetPoint" />
            <Array as="points">
              <mxPoint x="1080" y="1030" />
            </Array>
          </mxGeometry>
        </mxCell>
        <mxCell id="E0C3lFz2rYSMoJs8v3DQ-20" value="" style="endArrow=none;html=1;rounded=0;entryX=0.75;entryY=1;entryDx=0;entryDy=0;exitX=0.5;exitY=0;exitDx=0;exitDy=0;" parent="1" source="pzpwTBq0BCV45j5jWxMN-68" target="pzpwTBq0BCV45j5jWxMN-8" edge="1">
          <mxGeometry width="50" height="50" relative="1" as="geometry">
            <mxPoint x="1130" y="1180" as="sourcePoint" />
            <mxPoint x="570" y="940" as="targetPoint" />
          </mxGeometry>
        </mxCell>
        <mxCell id="E0C3lFz2rYSMoJs8v3DQ-21" value="" style="endArrow=none;html=1;rounded=0;entryX=1;entryY=0.5;entryDx=0;entryDy=0;exitX=0;exitY=0;exitDx=0;exitDy=0;" parent="1" source="pzpwTBq0BCV45j5jWxMN-69" target="pzpwTBq0BCV45j5jWxMN-8" edge="1">
          <mxGeometry width="50" height="50" relative="1" as="geometry">
            <mxPoint x="520" y="990" as="sourcePoint" />
            <mxPoint x="570" y="940" as="targetPoint" />
            <Array as="points">
              <mxPoint x="1220" y="990" />
            </Array>
          </mxGeometry>
        </mxCell>
        <mxCell id="E0C3lFz2rYSMoJs8v3DQ-22" value="" style="endArrow=none;html=1;rounded=0;entryX=0.883;entryY=-0.017;entryDx=0;entryDy=0;exitX=0.5;exitY=1;exitDx=0;exitDy=0;entryPerimeter=0;" parent="1" source="pzpwTBq0BCV45j5jWxMN-71" target="pzpwTBq0BCV45j5jWxMN-8" edge="1">
          <mxGeometry width="50" height="50" relative="1" as="geometry">
            <mxPoint x="1230" y="1110" as="sourcePoint" />
            <mxPoint x="1130" y="1000" as="targetPoint" />
            <Array as="points">
              <mxPoint x="1220" y="900" />
            </Array>
          </mxGeometry>
        </mxCell>
        <mxCell id="E0C3lFz2rYSMoJs8v3DQ-23" value="" style="endArrow=none;html=1;rounded=0;entryX=1;entryY=0.25;entryDx=0;entryDy=0;exitX=0.5;exitY=1;exitDx=0;exitDy=0;" parent="1" source="pzpwTBq0BCV45j5jWxMN-70" target="pzpwTBq0BCV45j5jWxMN-8" edge="1">
          <mxGeometry width="50" height="50" relative="1" as="geometry">
            <mxPoint x="1264" y="1009" as="sourcePoint" />
            <mxPoint x="1160" y="970" as="targetPoint" />
            <Array as="points">
              <mxPoint x="1240" y="945" />
            </Array>
          </mxGeometry>
        </mxCell>
        <mxCell id="E0C3lFz2rYSMoJs8v3DQ-24" value="User_ID" style="ellipse;whiteSpace=wrap;html=1;" parent="1" vertex="1">
          <mxGeometry x="640" y="385" width="80" height="55" as="geometry" />
        </mxCell>
        <mxCell id="E0C3lFz2rYSMoJs8v3DQ-25" value="Address_ID" style="ellipse;whiteSpace=wrap;html=1;" parent="1" vertex="1">
          <mxGeometry x="690" y="458" width="80" height="55" as="geometry" />
        </mxCell>
        <mxCell id="E0C3lFz2rYSMoJs8v3DQ-26" value="Total_Amount" style="ellipse;whiteSpace=wrap;html=1;" parent="1" vertex="1">
          <mxGeometry x="420" y="410" width="80" height="55" as="geometry" />
        </mxCell>
        <mxCell id="E0C3lFz2rYSMoJs8v3DQ-27" value="Restaurant_ID" style="ellipse;whiteSpace=wrap;html=1;" parent="1" vertex="1">
          <mxGeometry x="690" y="593" width="80" height="55" as="geometry" />
        </mxCell>
        <mxCell id="E0C3lFz2rYSMoJs8v3DQ-28" value="Order_date" style="ellipse;whiteSpace=wrap;html=1;" parent="1" vertex="1">
          <mxGeometry x="620" y="658" width="80" height="55" as="geometry" />
        </mxCell>
        <mxCell id="E0C3lFz2rYSMoJs8v3DQ-29" value="" style="endArrow=none;startArrow=none;html=1;rounded=0;startFill=0;" parent="1" edge="1">
          <mxGeometry width="50" height="50" relative="1" as="geometry">
            <mxPoint x="489" y="457" as="sourcePoint" />
            <mxPoint x="540" y="520" as="targetPoint" />
            <Array as="points">
              <mxPoint x="510" y="480" />
            </Array>
          </mxGeometry>
        </mxCell>
        <mxCell id="E0C3lFz2rYSMoJs8v3DQ-30" value="" style="endArrow=none;startArrow=none;html=1;rounded=0;startFill=0;entryX=0.75;entryY=0;entryDx=0;entryDy=0;exitX=0.233;exitY=1.018;exitDx=0;exitDy=0;exitPerimeter=0;" parent="1" source="E0C3lFz2rYSMoJs8v3DQ-24" target="pzpwTBq0BCV45j5jWxMN-3" edge="1">
          <mxGeometry width="50" height="50" relative="1" as="geometry">
            <mxPoint x="499" y="467" as="sourcePoint" />
            <mxPoint x="550" y="530" as="targetPoint" />
            <Array as="points" />
          </mxGeometry>
        </mxCell>
        <mxCell id="E0C3lFz2rYSMoJs8v3DQ-31" value="" style="endArrow=none;startArrow=none;html=1;rounded=0;startFill=0;exitX=0;exitY=1;exitDx=0;exitDy=0;entryX=1;entryY=0;entryDx=0;entryDy=0;" parent="1" source="E0C3lFz2rYSMoJs8v3DQ-25" target="pzpwTBq0BCV45j5jWxMN-3" edge="1">
          <mxGeometry width="50" height="50" relative="1" as="geometry">
            <mxPoint x="669" y="451" as="sourcePoint" />
            <mxPoint x="640" y="520" as="targetPoint" />
            <Array as="points" />
          </mxGeometry>
        </mxCell>
        <mxCell id="E0C3lFz2rYSMoJs8v3DQ-32" value="" style="endArrow=none;startArrow=none;html=1;rounded=0;startFill=0;entryX=1;entryY=1;entryDx=0;entryDy=0;exitX=0;exitY=0.5;exitDx=0;exitDy=0;" parent="1" source="E0C3lFz2rYSMoJs8v3DQ-27" target="pzpwTBq0BCV45j5jWxMN-3" edge="1">
          <mxGeometry width="50" height="50" relative="1" as="geometry">
            <mxPoint x="669" y="451" as="sourcePoint" />
            <mxPoint x="610" y="530" as="targetPoint" />
            <Array as="points" />
          </mxGeometry>
        </mxCell>
        <mxCell id="E0C3lFz2rYSMoJs8v3DQ-33" value="" style="endArrow=none;startArrow=none;html=1;rounded=0;startFill=0;entryX=0.85;entryY=0.994;entryDx=0;entryDy=0;exitX=0.283;exitY=0.127;exitDx=0;exitDy=0;entryPerimeter=0;exitPerimeter=0;" parent="1" source="E0C3lFz2rYSMoJs8v3DQ-28" target="pzpwTBq0BCV45j5jWxMN-3" edge="1">
          <mxGeometry width="50" height="50" relative="1" as="geometry">
            <mxPoint x="700" y="631" as="sourcePoint" />
            <mxPoint x="640" y="590" as="targetPoint" />
            <Array as="points" />
          </mxGeometry>
        </mxCell>
        <mxCell id="E0C3lFz2rYSMoJs8v3DQ-34" value="&lt;u&gt;Order_ID&lt;/u&gt;" style="ellipse;whiteSpace=wrap;html=1;" parent="1" vertex="1">
          <mxGeometry x="320" y="425" width="80" height="55" as="geometry" />
        </mxCell>
        <mxCell id="E0C3lFz2rYSMoJs8v3DQ-35" value="" style="endArrow=none;startArrow=none;html=1;rounded=0;startFill=0;entryX=0;entryY=0.25;entryDx=0;entryDy=0;exitX=1;exitY=1;exitDx=0;exitDy=0;" parent="1" source="E0C3lFz2rYSMoJs8v3DQ-34" target="pzpwTBq0BCV45j5jWxMN-3" edge="1">
          <mxGeometry width="50" height="50" relative="1" as="geometry">
            <mxPoint x="669" y="451" as="sourcePoint" />
            <mxPoint x="610" y="530" as="targetPoint" />
            <Array as="points" />
          </mxGeometry>
        </mxCell>
        <mxCell id="E0C3lFz2rYSMoJs8v3DQ-36" value="&lt;u&gt;Order_ID&lt;/u&gt;" style="ellipse;whiteSpace=wrap;html=1;" parent="1" vertex="1">
          <mxGeometry x="930" y="420" width="80" height="55" as="geometry" />
        </mxCell>
        <mxCell id="E0C3lFz2rYSMoJs8v3DQ-37" value="Price_At_Order" style="ellipse;whiteSpace=wrap;html=1;" parent="1" vertex="1">
          <mxGeometry x="1250" y="488" width="100" height="72" as="geometry" />
        </mxCell>
        <mxCell id="E0C3lFz2rYSMoJs8v3DQ-38" value="Quantity" style="ellipse;whiteSpace=wrap;html=1;" parent="1" vertex="1">
          <mxGeometry x="1150" y="398" width="80" height="55" as="geometry" />
        </mxCell>
        <mxCell id="E0C3lFz2rYSMoJs8v3DQ-39" value="&lt;u&gt;Item_ID&lt;/u&gt;" style="ellipse;whiteSpace=wrap;html=1;" parent="1" vertex="1">
          <mxGeometry x="1040" y="395" width="80" height="55" as="geometry" />
        </mxCell>
        <mxCell id="E0C3lFz2rYSMoJs8v3DQ-40" value="" style="endArrow=none;html=1;rounded=0;exitX=0.692;exitY=0.939;exitDx=0;exitDy=0;exitPerimeter=0;entryX=0;entryY=0;entryDx=0;entryDy=0;" parent="1" source="E0C3lFz2rYSMoJs8v3DQ-36" target="pzpwTBq0BCV45j5jWxMN-5" edge="1">
          <mxGeometry width="50" height="50" relative="1" as="geometry">
            <mxPoint x="-180" y="470" as="sourcePoint" />
            <mxPoint x="-50" y="532" as="targetPoint" />
            <Array as="points" />
          </mxGeometry>
        </mxCell>
        <mxCell id="E0C3lFz2rYSMoJs8v3DQ-41" value="" style="endArrow=none;html=1;rounded=0;exitX=0.5;exitY=1;exitDx=0;exitDy=0;entryX=0.383;entryY=-0.028;entryDx=0;entryDy=0;entryPerimeter=0;" parent="1" source="E0C3lFz2rYSMoJs8v3DQ-39" target="pzpwTBq0BCV45j5jWxMN-5" edge="1">
          <mxGeometry width="50" height="50" relative="1" as="geometry">
            <mxPoint x="995" y="482" as="sourcePoint" />
            <mxPoint x="1040" y="530" as="targetPoint" />
            <Array as="points" />
          </mxGeometry>
        </mxCell>
        <mxCell id="E0C3lFz2rYSMoJs8v3DQ-42" value="" style="endArrow=none;html=1;rounded=0;exitX=0;exitY=1;exitDx=0;exitDy=0;entryX=0.75;entryY=0;entryDx=0;entryDy=0;" parent="1" source="E0C3lFz2rYSMoJs8v3DQ-38" target="pzpwTBq0BCV45j5jWxMN-5" edge="1">
          <mxGeometry width="50" height="50" relative="1" as="geometry">
            <mxPoint x="1090" y="460" as="sourcePoint" />
            <mxPoint x="1086" y="528" as="targetPoint" />
            <Array as="points" />
          </mxGeometry>
        </mxCell>
        <mxCell id="E0C3lFz2rYSMoJs8v3DQ-43" value="" style="endArrow=none;html=1;rounded=0;exitX=0;exitY=0.5;exitDx=0;exitDy=0;entryX=1;entryY=0.25;entryDx=0;entryDy=0;" parent="1" source="E0C3lFz2rYSMoJs8v3DQ-37" target="pzpwTBq0BCV45j5jWxMN-5" edge="1">
          <mxGeometry width="50" height="50" relative="1" as="geometry">
            <mxPoint x="1171" y="455" as="sourcePoint" />
            <mxPoint x="1130" y="530" as="targetPoint" />
            <Array as="points" />
          </mxGeometry>
        </mxCell>
        <mxCell id="E0C3lFz2rYSMoJs8v3DQ-44" value="&lt;u&gt;Payment_ID&lt;/u&gt;" style="ellipse;whiteSpace=wrap;html=1;" parent="1" vertex="1">
          <mxGeometry x="-230" y="890" width="100" height="60" as="geometry" />
        </mxCell>
        <mxCell id="E0C3lFz2rYSMoJs8v3DQ-45" value="Order_ID" style="ellipse;whiteSpace=wrap;html=1;" parent="1" vertex="1">
          <mxGeometry x="-240" y="990" width="100" height="60" as="geometry" />
        </mxCell>
        <mxCell id="E0C3lFz2rYSMoJs8v3DQ-46" value="Payment_Method" style="ellipse;whiteSpace=wrap;html=1;" parent="1" vertex="1">
          <mxGeometry x="-80" y="1010" width="110" height="70" as="geometry" />
        </mxCell>
        <mxCell id="E0C3lFz2rYSMoJs8v3DQ-47" value="Amount" style="ellipse;whiteSpace=wrap;html=1;" parent="1" vertex="1">
          <mxGeometry x="110" y="1020" width="100" height="60" as="geometry" />
        </mxCell>
        <mxCell id="E0C3lFz2rYSMoJs8v3DQ-48" value="Payment_Status" style="ellipse;whiteSpace=wrap;html=1;" parent="1" vertex="1">
          <mxGeometry x="150" y="900" width="100" height="60" as="geometry" />
        </mxCell>
        <mxCell id="E0C3lFz2rYSMoJs8v3DQ-49" value="Payment_Date" style="ellipse;whiteSpace=wrap;html=1;" parent="1" vertex="1">
          <mxGeometry x="110" y="810" width="100" height="60" as="geometry" />
        </mxCell>
        <mxCell id="E0C3lFz2rYSMoJs8v3DQ-50" value="" style="endArrow=none;html=1;rounded=0;exitX=0.9;exitY=-0.039;exitDx=0;exitDy=0;exitPerimeter=0;entryX=0.287;entryY=0.939;entryDx=0;entryDy=0;entryPerimeter=0;" parent="1" source="pzpwTBq0BCV45j5jWxMN-6" target="E0C3lFz2rYSMoJs8v3DQ-49" edge="1">
          <mxGeometry width="50" height="50" relative="1" as="geometry">
            <mxPoint x="520" y="670" as="sourcePoint" />
            <mxPoint x="570" y="620" as="targetPoint" />
          </mxGeometry>
        </mxCell>
        <mxCell id="E0C3lFz2rYSMoJs8v3DQ-51" value="" style="endArrow=none;html=1;rounded=0;exitX=1;exitY=0.25;exitDx=0;exitDy=0;entryX=0;entryY=0.5;entryDx=0;entryDy=0;" parent="1" source="pzpwTBq0BCV45j5jWxMN-6" target="E0C3lFz2rYSMoJs8v3DQ-48" edge="1">
          <mxGeometry width="50" height="50" relative="1" as="geometry">
            <mxPoint x="58" y="918" as="sourcePoint" />
            <mxPoint x="149" y="876" as="targetPoint" />
          </mxGeometry>
        </mxCell>
        <mxCell id="E0C3lFz2rYSMoJs8v3DQ-52" value="" style="endArrow=none;html=1;rounded=0;exitX=1;exitY=0.75;exitDx=0;exitDy=0;entryX=0;entryY=0;entryDx=0;entryDy=0;" parent="1" source="pzpwTBq0BCV45j5jWxMN-6" target="E0C3lFz2rYSMoJs8v3DQ-47" edge="1">
          <mxGeometry width="50" height="50" relative="1" as="geometry">
            <mxPoint x="68" y="928" as="sourcePoint" />
            <mxPoint x="159" y="886" as="targetPoint" />
          </mxGeometry>
        </mxCell>
        <mxCell id="E0C3lFz2rYSMoJs8v3DQ-53" value="" style="endArrow=none;html=1;rounded=0;exitX=0.378;exitY=0.939;exitDx=0;exitDy=0;exitPerimeter=0;" parent="1" source="pzpwTBq0BCV45j5jWxMN-6" target="E0C3lFz2rYSMoJs8v3DQ-46" edge="1">
          <mxGeometry width="50" height="50" relative="1" as="geometry">
            <mxPoint x="78" y="938" as="sourcePoint" />
            <mxPoint x="169" y="896" as="targetPoint" />
          </mxGeometry>
        </mxCell>
        <mxCell id="E0C3lFz2rYSMoJs8v3DQ-54" value="" style="endArrow=none;html=1;rounded=0;exitX=0;exitY=1;exitDx=0;exitDy=0;entryX=0.947;entryY=0.161;entryDx=0;entryDy=0;entryPerimeter=0;" parent="1" source="pzpwTBq0BCV45j5jWxMN-6" target="E0C3lFz2rYSMoJs8v3DQ-45" edge="1">
          <mxGeometry width="50" height="50" relative="1" as="geometry">
            <mxPoint x="88" y="948" as="sourcePoint" />
            <mxPoint x="179" y="906" as="targetPoint" />
          </mxGeometry>
        </mxCell>
        <mxCell id="E0C3lFz2rYSMoJs8v3DQ-55" value="" style="endArrow=none;html=1;rounded=0;exitX=0;exitY=0;exitDx=0;exitDy=0;entryX=1;entryY=0.5;entryDx=0;entryDy=0;" parent="1" source="pzpwTBq0BCV45j5jWxMN-6" target="E0C3lFz2rYSMoJs8v3DQ-44" edge="1">
          <mxGeometry width="50" height="50" relative="1" as="geometry">
            <mxPoint x="98" y="958" as="sourcePoint" />
            <mxPoint x="189" y="916" as="targetPoint" />
          </mxGeometry>
        </mxCell>
        <mxCell id="E0C3lFz2rYSMoJs8v3DQ-56" value="" style="endArrow=none;html=1;rounded=0;exitX=0.767;exitY=0.106;exitDx=0;exitDy=0;exitPerimeter=0;entryX=0.5;entryY=1;entryDx=0;entryDy=0;" parent="1" source="pzpwTBq0BCV45j5jWxMN-66" target="pzpwTBq0BCV45j5jWxMN-4" edge="1">
          <mxGeometry width="50" height="50" relative="1" as="geometry">
            <mxPoint x="510" y="670" as="sourcePoint" />
            <mxPoint x="560" y="620" as="targetPoint" />
          </mxGeometry>
        </mxCell>
        <mxCell id="E0C3lFz2rYSMoJs8v3DQ-57" value="&lt;u&gt;Delivery_ID&lt;/u&gt;" style="ellipse;whiteSpace=wrap;html=1;" parent="1" vertex="1">
          <mxGeometry x="385" y="950" width="100" height="60" as="geometry" />
        </mxCell>
        <mxCell id="E0C3lFz2rYSMoJs8v3DQ-58" value="Order_ID" style="ellipse;whiteSpace=wrap;html=1;" parent="1" vertex="1">
          <mxGeometry x="520" y="1030" width="100" height="60" as="geometry" />
        </mxCell>
        <mxCell id="E0C3lFz2rYSMoJs8v3DQ-59" value="Delivery_Status" style="ellipse;whiteSpace=wrap;html=1;" parent="1" vertex="1">
          <mxGeometry x="660" y="1020" width="100" height="60" as="geometry" />
        </mxCell>
        <mxCell id="E0C3lFz2rYSMoJs8v3DQ-60" value="Delivery_Date" style="ellipse;whiteSpace=wrap;html=1;" parent="1" vertex="1">
          <mxGeometry x="680" y="890" width="100" height="60" as="geometry" />
        </mxCell>
        <mxCell id="E0C3lFz2rYSMoJs8v3DQ-61" value="" style="endArrow=none;html=1;rounded=0;exitX=0.5;exitY=0;exitDx=0;exitDy=0;entryX=0;entryY=0.25;entryDx=0;entryDy=0;" parent="1" source="E0C3lFz2rYSMoJs8v3DQ-57" target="pzpwTBq0BCV45j5jWxMN-7" edge="1">
          <mxGeometry width="50" height="50" relative="1" as="geometry">
            <mxPoint x="70" y="935" as="sourcePoint" />
            <mxPoint x="160" y="940" as="targetPoint" />
          </mxGeometry>
        </mxCell>
        <mxCell id="E0C3lFz2rYSMoJs8v3DQ-62" value="" style="endArrow=none;html=1;rounded=0;exitX=0.5;exitY=0;exitDx=0;exitDy=0;entryX=0.5;entryY=1;entryDx=0;entryDy=0;" parent="1" source="E0C3lFz2rYSMoJs8v3DQ-58" target="pzpwTBq0BCV45j5jWxMN-7" edge="1">
          <mxGeometry width="50" height="50" relative="1" as="geometry">
            <mxPoint x="445" y="960" as="sourcePoint" />
            <mxPoint x="530" y="935" as="targetPoint" />
          </mxGeometry>
        </mxCell>
        <mxCell id="E0C3lFz2rYSMoJs8v3DQ-63" value="" style="endArrow=none;html=1;rounded=0;exitX=0.267;exitY=-0.006;exitDx=0;exitDy=0;entryX=1;entryY=1;entryDx=0;entryDy=0;exitPerimeter=0;" parent="1" source="E0C3lFz2rYSMoJs8v3DQ-59" target="pzpwTBq0BCV45j5jWxMN-7" edge="1">
          <mxGeometry width="50" height="50" relative="1" as="geometry">
            <mxPoint x="455" y="970" as="sourcePoint" />
            <mxPoint x="540" y="945" as="targetPoint" />
          </mxGeometry>
        </mxCell>
        <mxCell id="E0C3lFz2rYSMoJs8v3DQ-64" value="" style="endArrow=none;html=1;rounded=0;exitX=0.5;exitY=1;exitDx=0;exitDy=0;entryX=1;entryY=0.5;entryDx=0;entryDy=0;" parent="1" source="E0C3lFz2rYSMoJs8v3DQ-60" target="pzpwTBq0BCV45j5jWxMN-7" edge="1">
          <mxGeometry width="50" height="50" relative="1" as="geometry">
            <mxPoint x="465" y="980" as="sourcePoint" />
            <mxPoint x="550" y="955" as="targetPoint" />
          </mxGeometry>
        </mxCell>
      </root>
    </mxGraphModel>
  </diagram>
</mxfile>
